# xmcd
#
# Track frame offsets:
#	182
#	11972
#	22000
#	33527
#	44350
#	55232
#	65855
#	75647
#	89437
#	102875
#	113342
#	122992
#	134282
#	145170
#	159487
#	171010
#	182697
#	195432
#
# Disc length: 2787
#
# Revision: 2
# Processed by: cddbd v1.5.1PL0 Copyright (c) Steve Scherf et al.
# Submitted via: CDex 1.50Beta7
# Normalized: r1:DSETVAR1
#
DISCID=f60ae112
DTITLE=Various Artist - 50 years of Country - Disc 2 - 1955 - 1962
DYEAR=2000
DGENRE=Country
TTITLE0=Tennessie Ernie Ford - Sixteen Tons - 1955
TTITLE1=Johnny Cash and the Tennessie Two - Get Rhythm - 1956
TTITLE2=Patsy Cline - Walkin' after midnight - 1956
TTITLE3=Sonny James - Lovesick Blues - 1957
TTITLE4=Charlie Walker - Pick me up on your way down - 1958
TTITLE5=The Everly Brothers - All I have to do is dream - 1958
TTITLE6=Jerry Lee Lewis - Night train to Memphis - 1959
TTITLE7=Charlie Rich - Sittin' and thinkin' - 1959
TTITLE8=Ray Price - Heartaches by the number - 1959
TTITLE9=Ferlin Husky - Wings of a dove - 1960
TTITLE10=Hank Thompson - A six pack to go - 1960
TTITLE11=Charlie Ryan and the timberline riders - Hot rod Lincoln - 1960
TTITLE12=Faron Young - Hello Walls - 1961
TTITLE13=Tex Ritter - I dreamed of a Hill-Billy heaven - 1961
TTITLE14=Rose Maddox - Gotta travel on - 1961
TTITLE15=Wanda Jackson - In the middle of a heartache - 1961
TTITLE16=Johnny Tillotson - It keeps right on a-hurtin' - 1962
TTITLE17=Willie Nelson - Funny how time slips away - 1962
EXTD=YEAR: 2000
EXTT0=
EXTT1=
EXTT2=
EXTT3=
EXTT4=
EXTT5=
EXTT6=
EXTT7=
EXTT8=
EXTT9=
EXTT10=
EXTT11=
EXTT12=
EXTT13=
EXTT14=
EXTT15=
EXTT16=
EXTT17=
PLAYORDER=
